<svg xmlns="http://www.w3.org/2000/svg" width="128" height="128" viewBox="0 0 128 128">
  <rect width="128" height="128" fill="#4285F4" rx="20" ry="20"/>
  <circle cx="64" cy="64" r="40" fill="#FFFFFF" opacity="0.2"/>
  <path d="M92,46 L68,46 L68,36 C68,31.6 64.4,28 60,28 L40,28 C35.6,28 32,31.6 32,36 L32,92 C32,96.4 35.6,100 40,100 L88,100 C92.4,100 96,96.4 96,92 L96,50 C96,47.8 94.2,46 92,46 Z M60,36 L60,46 L40,46 L40,36 L60,36 Z M64,76 L40,76 L40,68 L64,68 L64,76 Z M88,76 L72,76 L72,68 L88,68 L88,76 Z M88,60 L40,60 L40,52 L88,52 L88,60 Z" fill="#FFFFFF"/>
</svg> 